<svg version="1.1" xmlns="http://www.w3.org/2000/svg" viewBox="0 0 42 42">
<style type="text/css">
	.st1{fill:#4DC9CD;}
	.st2{fill:none;stroke:#FFFFFF;stroke-width:2;stroke-linecap:round;stroke-miterlimit:10;}
	.st3{fill:#FFFFFF;}
	.st4{fill:none;stroke:#4DC9CD;stroke-miterlimit:10;}
	.st5{fill:none;stroke:#FFFFFF;stroke-linecap:round;stroke-miterlimit:10;}
</style>
<g transform="translate(-175, 0)">
	<path class="st1" d="M216.19,21.94L216.19,21.94c1.08-8.59-3.66-17.16-12.03-20.52c-9.97-4-21.31,0.87-25.34,10.89
		c-4.02,10.02,0.8,21.39,10.77,25.39c0.9,0.36,1.81,0.65,2.73,0.87c-1.74,1.68-3.25,2.85-4.2,3c0.22,0.37,11.04-0.16,19.21-5.57
		c0.8-0.51,1.57-1.09,2.3-1.72c3.39-2.88,5.98-6.84,6.56-12.23c0-0.01,0-0.03,0.01-0.04C216.18,21.99,216.18,21.96,216.19,21.94z"
		/>
	<line class="st2" x1="178.43" y1="12.32" x2="215.03" y2="12.32"/>
	<path class="st3" d="M201.77,7.23c0,2.78-2.25,5.04-5.04,5.04s-5.04-2.25-5.04-5.04c0-2.78,2.25-5.04,5.04-5.04
		S201.77,4.44,201.77,7.23z"/>
	<path class="st4" d="M199.58,7.23c0,1.58-1.28,2.85-2.85,2.85c-1.58,0-2.85-1.28-2.85-2.85c0-1.58,1.28-2.85,2.85-2.85
		C198.31,4.37,199.58,5.65,199.58,7.23z"/>
	<g>
		<path class="st5" d="M188.48,24.97c0,0,0.47,8.26,8.39,8.26"/>
		<path class="st5" d="M205.25,24.97c0,0-0.47,8.26-8.39,8.26"/>
	</g>
</g>
</svg>
