<?xml version="1.0" encoding="utf-8"?>
<!-- Generator: Adobe Illustrator 25.0.0, SVG Export Plug-In . SVG Version: 6.00 Build 0)  -->
<svg version="1.1" id="Layer_1" xmlns="http://www.w3.org/2000/svg" xmlns:xlink="http://www.w3.org/1999/xlink" x="0px" y="0px"
	 viewBox="0 0 250 42" style="enable-background:new 0 0 250 42;" xml:space="preserve">
<style type="text/css">
	.st0{fill:#040B79;}
	.st1{fill:#4DC9CD;}
	.st2{fill:none;stroke:#FFFFFF;stroke-width:2;stroke-linecap:round;stroke-miterlimit:10;}
	.st3{fill:#FFFFFF;}
	.st4{fill:none;stroke:#4DC9CD;stroke-miterlimit:10;}
	.st5{fill:none;stroke:#FFFFFF;stroke-linecap:round;stroke-miterlimit:10;}
</style>
<g>
	<g>
		<path class="st0" d="M0,1.1h7.12l13.8,22.4l13.8-22.4h7.12v40.03h-8.94V19.17l-9.28,15.37h-5.4L8.94,19.17v21.95H0V1.1z"/>
		<path class="st0" d="M47.93,1.1H77.7v7.76H56.87v8.15h19.11v7.76H56.87v8.59h21.27v7.76H47.93V1.1z"/>
		<path class="st0" d="M83.15,1.1h15.52c13.26,0,21.46,8.2,21.46,20.04c0,11.84-8.2,19.99-21.46,19.99H83.15V1.1z M98.81,33.22
			c7.66,0,12.38-4.37,12.38-12.08S106.48,9.01,98.81,9.01h-6.73v24.21H98.81z"/>
		<path class="st0" d="M133.44,1.1v40.03h-8.94V1.1H133.44z"/>
	</g>
	<g>
		<path class="st0" d="M173.5,13.07h-9.23c-0.54-3.49-3.14-5.6-7.42-5.6c-4.18,0-6.48,1.67-6.48,4.08c0,3,3.09,4.03,10.9,5.65
			c9.23,1.92,12.38,6.48,12.38,12.47c0,7.66-7.22,12.33-16.16,12.33c-9.87,0-17.09-5.35-17.48-13.9h9.18
			c0.49,3.83,3.83,6.38,8.94,6.38c3.63,0,6.34-1.82,6.34-4.42c0-3.19-2.7-4.47-9.82-5.8c-8.69-1.62-13.41-5.21-13.41-12.72
			c0-7.22,7.17-11.54,16.21-11.54C166.38,0.01,173.06,5.46,173.5,13.07z"/>
	</g>
	<g>
		<path class="st0" d="M229.26,0v33.52h20.76v8.25h-30.04V0H229.26z"/>
	</g>
	<g>
		<path class="st1" d="M216.19,21.94L216.19,21.94c1.08-8.59-3.66-17.16-12.03-20.52c-9.97-4-21.31,0.87-25.34,10.89
			c-4.02,10.02,0.8,21.39,10.77,25.39c0.9,0.36,1.81,0.65,2.73,0.87c-1.74,1.68-3.25,2.85-4.2,3c0.22,0.37,11.04-0.16,19.21-5.57
			c0.8-0.51,1.57-1.09,2.3-1.72c3.39-2.88,5.98-6.84,6.56-12.23c0-0.01,0-0.03,0.01-0.04C216.18,21.99,216.18,21.96,216.19,21.94z"
			/>
		<line class="st2" x1="178.43" y1="12.32" x2="215.03" y2="12.32"/>
		<path class="st3" d="M201.77,7.23c0,2.78-2.25,5.04-5.04,5.04s-5.04-2.25-5.04-5.04c0-2.78,2.25-5.04,5.04-5.04
			S201.77,4.44,201.77,7.23z"/>
		<path class="st4" d="M199.58,7.23c0,1.58-1.28,2.85-2.85,2.85c-1.58,0-2.85-1.28-2.85-2.85c0-1.58,1.28-2.85,2.85-2.85
			C198.31,4.37,199.58,5.65,199.58,7.23z"/>
		<g>
			<path class="st5" d="M188.48,24.97c0,0,0.47,8.26,8.39,8.26"/>
			<path class="st5" d="M205.25,24.97c0,0-0.47,8.26-8.39,8.26"/>
		</g>
	</g>
</g>
</svg>
